<?xml version="1.0" encoding="UTF-8" standalone="no"?>
<!-- Created with Inkscape (http://www.inkscape.org/) -->

<svg
   xmlns:dc="http://purl.org/dc/elements/1.1/"
   xmlns:cc="http://creativecommons.org/ns#"
   xmlns:rdf="http://www.w3.org/1999/02/22-rdf-syntax-ns#"
   xmlns:svg="http://www.w3.org/2000/svg"
   xmlns="http://www.w3.org/2000/svg"
   xmlns:xlink="http://www.w3.org/1999/xlink"
   xmlns:sodipodi="http://sodipodi.sourceforge.net/DTD/sodipodi-0.dtd"
   xmlns:inkscape="http://www.inkscape.org/namespaces/inkscape"
   version="1.1"
   id="svg19382"
   xml:space="preserve"
   width="1997.5321"
   height="729.45306"
   viewBox="0 0 1997.5321 729.45306"
   sodipodi:docname="bullversusbear.svg"
   inkscape:version="0.91 r13725"><metadata
     id="metadata19388"><rdf:RDF><cc:Work
         rdf:about=""><dc:format>image/svg+xml</dc:format><dc:type
           rdf:resource="http://purl.org/dc/dcmitype/StillImage" /><dc:title></dc:title><dc:creator><cc:Agent><dc:title>j4p4n</dc:title></cc:Agent></dc:creator><cc:license
           rdf:resource="http://creativecommons.org/publicdomain/zero/1.0/" /></cc:Work><cc:License
         rdf:about="http://creativecommons.org/publicdomain/zero/1.0/"><cc:permits
           rdf:resource="http://creativecommons.org/ns#Reproduction" /><cc:permits
           rdf:resource="http://creativecommons.org/ns#Distribution" /><cc:permits
           rdf:resource="http://creativecommons.org/ns#DerivativeWorks" /></cc:License></rdf:RDF></metadata><defs
     id="defs19386"><clipPath
       clipPathUnits="userSpaceOnUse"
       id="clipPath19398"><path
         d="M 0,660 660,660 660,0 0,0 Z"
         id="path19396"
         inkscape:connector-curvature="0" /></clipPath><inkscape:perspective
       id="perspective35"
       inkscape:persp3d-origin="300 : 220 : 1"
       inkscape:vp_z="600 : 330 : 1"
       inkscape:vp_y="0 : 999.99999 : 0"
       inkscape:vp_x="0 : 330 : 1"
       sodipodi:type="inkscape:persp3d" /><linearGradient
       id="linearGradient2893"><stop
         id="stop2895"
         offset="0"
         style="stop-color:white;stop-opacity:0.3137255;" /><stop
         style="stop-color:white;stop-opacity:0.25098041;"
         offset="0.19"
         id="stop2897" /><stop
         id="stop2901"
         offset="0.60000002"
         style="stop-color:#6b6b6b;stop-opacity:0.1254902;" /><stop
         id="stop2899"
         offset="1"
         style="stop-color:black;stop-opacity:0.1254902;" /></linearGradient><linearGradient
       id="linearGradient2885"><stop
         style="stop-color:white;stop-opacity:1;"
         offset="0"
         id="stop2887" /><stop
         id="stop2891"
         offset="0.22857143"
         style="stop-color:white;stop-opacity:1;" /><stop
         style="stop-color:black;stop-opacity:1;"
         offset="1"
         id="stop2889" /></linearGradient><linearGradient
       id="linearGradient2955"><stop
         style="stop-color:#fd0000;stop-opacity:1;"
         offset="0"
         id="stop2867" /><stop
         id="stop2873"
         offset="0.5"
         style="stop-color:#e77275;stop-opacity:0.65882355;" /><stop
         id="stop2959"
         offset="1"
         style="stop-color:black;stop-opacity:0.32291666;" /></linearGradient><radialGradient
       gradientUnits="userSpaceOnUse"
       gradientTransform="matrix(-4.167939e-4,2.182867,-1.884232,-3.599562e-4,615.5972,-289.1214)"
       r="300"
       fy="218.90099"
       fx="225.52438"
       cy="218.90099"
       cx="225.52438"
       id="radialGradient2961"
       xlink:href="#linearGradient2955"
       inkscape:collect="always" /><polygon
       points="-0.95105652,-0.30901699 0.95105652,-0.30901699 -0.58778525,0.80901699 0,-1 0,-1 0.58778525,0.80901699 "
       transform="scale(53,53)"
       id="star" /><clipPath
       id="clip"><path
         id="path10"
         d="m 0,-200 0,800 300,0 0,-800 -300,0 z"
         inkscape:connector-curvature="0" /></clipPath><radialGradient
       r="300"
       fy="218.90099"
       fx="225.52438"
       cy="218.90099"
       cx="225.52438"
       gradientTransform="matrix(-4.167939e-4,2.182867,-1.884232,-3.599562e-4,615.5972,-289.1214)"
       gradientUnits="userSpaceOnUse"
       id="radialGradient1911"
       xlink:href="#linearGradient2955"
       inkscape:collect="always" /><radialGradient
       r="300"
       fy="218.90099"
       fx="225.52438"
       cy="218.90099"
       cx="225.52438"
       gradientTransform="matrix(0,1.748721,-1.593162,-1.049767e-7,551.7876,-191.2898)"
       gradientUnits="userSpaceOnUse"
       id="radialGradient2865"
       xlink:href="#linearGradient2955"
       inkscape:collect="always" /><radialGradient
       r="300"
       fy="218.90099"
       fx="225.52438"
       cy="218.90099"
       cx="225.52438"
       gradientTransform="matrix(0,1.386237,-1.323286,-5.741131e-8,-158.0823,-109.5408)"
       gradientUnits="userSpaceOnUse"
       id="radialGradient2871"
       xlink:href="#linearGradient2955"
       inkscape:collect="always" /><radialGradient
       inkscape:collect="always"
       xlink:href="#linearGradient2893"
       id="radialGradient3449"
       gradientUnits="userSpaceOnUse"
       gradientTransform="matrix(1.353218,0,0,1.348928,-77.62935,-85.74693)"
       cx="221.44487"
       cy="226.33101"
       fx="221.44487"
       fy="226.33101"
       r="300" /><radialGradient
       inkscape:collect="always"
       xlink:href="#linearGradient2955"
       id="radialGradient3447"
       gradientUnits="userSpaceOnUse"
       gradientTransform="matrix(0,1.386237,-1.323286,-5.741131e-8,-158.0823,-109.5408)"
       cx="225.52438"
       cy="218.90099"
       fx="225.52438"
       fy="218.90099"
       r="300" /><radialGradient
       inkscape:collect="always"
       xlink:href="#linearGradient2955"
       id="radialGradient3445"
       gradientUnits="userSpaceOnUse"
       gradientTransform="matrix(0,1.748721,-1.593162,-1.049767e-7,551.7876,-191.2898)"
       cx="225.52438"
       cy="218.90099"
       fx="225.52438"
       fy="218.90099"
       r="300" /><radialGradient
       inkscape:collect="always"
       xlink:href="#linearGradient2955"
       id="radialGradient3443"
       gradientUnits="userSpaceOnUse"
       gradientTransform="matrix(-4.167939e-4,2.182867,-1.884232,-3.599562e-4,615.5972,-289.1214)"
       cx="225.52438"
       cy="218.90099"
       fx="225.52438"
       fy="218.90099"
       r="300" /><clipPath
       id="clipPath3439"><path
         d="m 0,-200 0,800 300,0 0,-800 -300,0 z"
         id="path3441"
         inkscape:connector-curvature="0" /></clipPath><polygon
       id="polygon3437"
       transform="scale(53,53)"
       points="-0.95105652,-0.30901699 0.95105652,-0.30901699 -0.58778525,0.80901699 0,-1 0,-1 0.58778525,0.80901699 " /><radialGradient
       inkscape:collect="always"
       xlink:href="#linearGradient2955"
       id="radialGradient3435"
       cx="225.52438"
       cy="218.90099"
       fx="225.52438"
       fy="218.90099"
       r="300"
       gradientTransform="matrix(-4.167939e-4,2.182867,-1.884232,-3.599562e-4,615.5972,-289.1214)"
       gradientUnits="userSpaceOnUse" /><inkscape:perspective
       sodipodi:type="inkscape:persp3d"
       inkscape:vp_x="0 : 330 : 1"
       inkscape:vp_y="0 : 999.99999 : 0"
       inkscape:vp_z="600 : 330 : 1"
       inkscape:persp3d-origin="300 : 220 : 1"
       id="perspective3407" /><inkscape:perspective
       sodipodi:type="inkscape:persp3d"
       inkscape:vp_x="0 : 218 : 1"
       inkscape:vp_y="0 : 999.99999 : 0"
       inkscape:vp_z="359 : 218 : 1"
       inkscape:persp3d-origin="179.5 : 145.33333 : 1"
       id="perspective173" /><inkscape:perspective
       sodipodi:type="inkscape:persp3d"
       inkscape:vp_x="0 : 152.5 : 1"
       inkscape:vp_y="0 : 999.99999 : 0"
       inkscape:vp_z="225 : 152.5 : 1"
       inkscape:persp3d-origin="112.5 : 101.66667 : 1"
       id="perspective10" /></defs><sodipodi:namedview
     pagecolor="#ffffff"
     bordercolor="#666666"
     borderopacity="1"
     objecttolerance="10"
     gridtolerance="10"
     guidetolerance="10"
     inkscape:pageopacity="0"
     inkscape:pageshadow="2"
     inkscape:window-width="1916"
     inkscape:window-height="1035"
     id="namedview19384"
     showgrid="false"
     inkscape:zoom="0.32490096"
     inkscape:cx="100.48939"
     inkscape:cy="223.38901"
     inkscape:window-x="4"
     inkscape:window-y="1"
     inkscape:window-maximized="1"
     inkscape:current-layer="g19390"
     showguides="true"
     inkscape:guide-bbox="true"
     fit-margin-top="0"
     fit-margin-left="0"
     fit-margin-right="0"
     fit-margin-bottom="0" /><g
     id="g19390"
     inkscape:groupmode="layer"
     inkscape:label="raging-bull-silhouette-freesvg.org"
     transform="matrix(1.3333333,0,0,-1.3333333,126.19231,781.77666)"><g
       id="g19643"
       style="fill:#000000;fill-opacity:1"><path
         inkscape:connector-curvature="0"
         id="path19492"
         style="fill:#000000;fill-opacity:1;fill-rule:evenodd;stroke:none"
         d="m 574.639,411.564 0.004,0.002 9.028,-9.498 c -0.004,4.567 -0.574,9.088 -2.158,13.521 l 0.405,0.238 c 10.953,6.414 24.995,3.368 32.308,-7.009 3.462,-4.915 9.111,-7.823 15.123,-7.787 0.476,0.004 0.873,-0.37 0.894,-0.846 0.024,-0.477 -0.335,-0.887 -0.808,-0.929 l -2.6,-0.348 c -3.28,-0.44 -6.582,-0.366 -9.793,0.195 0.558,0.881 0.752,1.984 0.453,3.061 l -0.364,1.315 c -0.309,-1.664 -1.406,-3.053 -2.912,-3.751 -2.149,0.578 -4.241,1.38 -6.24,2.399 1.884,2.28 1.678,5.769 1.215,8.627 -0.266,-2.79 -1.506,-5.388 -3.494,-7.346 l -0.207,0.13 c -1.716,1.076 -3.555,1.563 -5.446,1.613 -1.771,3.113 -1.907,6.904 -0.348,10.141 l -1.34,-0.932 c -3.203,-2.228 -4.36,-6.351 -2.925,-9.864 -3.572,-1.042 -7.099,-3.192 -10.081,-5.493 -7.171,-0.233 -10.398,10.616 -10.714,12.561" /><path
         inkscape:connector-curvature="0"
         id="path19494"
         style="fill:#000000;fill-opacity:1;fill-rule:evenodd;stroke:none"
         d="m 513.494,438.459 c -5.02,-2.769 -11.019,-3.126 -16.334,-0.975 3.697,-3.988 6.474,-7.06 8.767,-12.208 4.719,-10.588 16.264,-16.366 27.569,-13.794 -8.388,1.574 -15.681,2.789 -18.71,12.414 l -1.2,5.381 4.314,1.793 c 7.91,3.289 17.025,1.421 23.003,-4.715 -6.22,9.897 -14.054,19.471 -27.409,12.104 m 63.207,-58.023 c 2.851,8.666 0,15.389 -5.173,22.113 l 0.872,-6.003 -2.668,-1.266 c -2.118,-1.005 -3.49,-3.113 -3.553,-5.455 -0.063,-2.343 1.197,-4.522 3.256,-5.638 2.059,-1.118 4.572,-0.982 6.501,0.348 z m -3.339,10.59 c -1.062,0 -1.923,-0.861 -1.923,-1.924 0,-1.061 0.861,-1.923 1.923,-1.923 1.063,0 1.925,0.862 1.925,1.923 0,1.063 -0.862,1.924 -1.925,1.924 M 117.771,115.203 93.981,224.63 l 10.138,7.243 c 8.124,5.802 -5.826,76.095 -9.962,85.184 -10.253,41.924 -0.296,73.711 21.398,93.475 l -15.787,-3.746 c -19.817,24.38 -27.974,24 -39.186,19.435 -15.863,-6.46 -33.186,-38.068 -34.922,-56.246 -1.597,-16.73 2.417,-29.965 16.464,-36.606 l 1.598,-0.946 c 10.775,3.557 22.146,4.575 29.487,-8.074 2.144,-3.692 6.086,-5.97 10.357,-5.979 -14.945,-6.841 -28.201,-12.547 -42.304,1.808 l 4.375,-0.395 c 7.147,-0.65 14.292,1.265 20.158,5.4 l -6.04,-1.056 c -6.026,-1.057 -12.173,-0.056 -17.492,2.745 -17.441,8.135 -27.738,26.64 -25.313,45.862 3.309,26.257 17.059,50.072 38.144,66.067 9.168,6.954 21.846,6.954 31.013,0 l 33.126,-25.131 c 28.574,22.952 74.606,27.118 121.794,8.814 15.515,-6.018 27.027,2.437 35.78,8.689 4.431,3.165 8.568,6.177 12.488,9.062 l 0,-0.001 15.905,9.227 c 19.242,11.16 40.228,20.363 61.698,27.052 l -7.393,-0.96 c -10.067,-1.308 -20.324,-3.328 -30.598,-6.013 15.724,11.032 32.034,20.887 56.929,32.212 26.993,12.838 63.238,-11.544 88.684,-31.509 13.773,-10.812 28.039,-16.951 45.36,-19.527 11.704,-1.741 21.464,-6.077 30.117,-11.216 l 5.213,4.792 c 16.886,15.524 42.849,15.524 59.735,0 7.998,-7.354 19.088,-10.325 29.692,-7.957 0.841,0.188 1.681,-0.32 1.905,-1.152 0.222,-0.833 -0.252,-1.694 -1.074,-1.951 l -4.457,-1.611 c -5.623,-2.032 -11.481,-3.167 -17.367,-3.408 0.647,1.772 0.565,3.794 -0.374,5.58 l -1.145,2.181 c 0.091,-3.055 -1.316,-5.928 -3.706,-7.738 -4.019,0.198 -8.02,0.813 -11.94,1.847 2.453,4.749 0.754,10.83 -1.161,15.7 0.6,-5.03 -0.597,-10.094 -3.352,-14.311 l -0.416,0.149 c -3.442,1.243 -6.88,1.399 -10.235,0.763 -4.323,4.818 -6.013,11.46 -4.502,17.778 l -2.009,-2.159 c -4.801,-5.164 -5.264,-12.887 -1.387,-18.542 -4.448,-2.418 -8.613,-5.935 -12.272,-9.748 -3.742,-3.899 -9.552,-4.621 -14.133,-1.756 -2.606,1.627 -4.925,3.897 -6.863,6.232 -0.214,-0.728 -0.328,-1.483 -0.328,-2.257 0,-5.947 6.656,-10.768 14.865,-10.768 5.256,0 9.875,1.976 12.517,4.958 6.294,-9.396 10.312,-20.58 12.851,-31.691 2.873,-12.559 9.458,-23.966 18.901,-32.733 l -7.948,-9.614 c -1.94,-2.344 -4.822,-3.701 -7.862,-3.701 -3.043,0 -5.924,1.357 -7.862,3.701 l -7.448,-4.966 c -2.174,-1.451 -4.866,-1.891 -7.389,-1.217 -2.524,0.677 -4.634,2.407 -5.792,4.748 l -14.956,7.227 -14.066,0 c -18.448,0 -49.562,9.841 -51.407,28.746 -15.976,-51.72 -22.482,-80.639 -35.482,-92.768 l 14.332,-72.076 -19.552,-96.575 -30.409,32.495 28.238,56.84 -35.479,69.871 21.004,2.643 0.002,0.004 c -7.984,0.479 -17.795,2.897 -30.238,6.948 l -2.898,-89.059 21.366,-79.742 -47.795,0 3.986,79.742 -29.425,73.624 -11.847,28.827 c -7.086,17.237 -7.086,36.571 0,53.808 l -11.949,-21.948 c -5.774,-10.609 -5.774,-23.422 0,-34.031 l 8.791,-32.806 -53.495,-21.931 c -37.031,-15.179 -68.968,3.389 -91.176,18.57 9.494,-16.459 22.673,-29.448 39.699,-38.818 -5.645,-8.442 -13.909,-14.25 -25.823,-14.434 l 52.308,-90.603 -61.103,0 -23.789,109.427 10.137,7.243 c 3.442,2.456 2.922,16.488 0.865,32.536 -4.138,2.891 -7.825,5.431 -11.016,7.284 0.868,-23.66 -4.644,-65.387 -36.913,-65.887 l 52.31,-90.603 z" /></g><g
       id="g123375"
       transform="matrix(0.75000002,0,0,-0.75000002,-446.55478,412.68636)"><g
         inkscape:label="Meubles"
         id="layer4"
         transform="translate(89.140164,-293.33333)"><g
           id="g2425"
           transform="matrix(0.5394906,0,0,0.4667296,461.42725,539.76986)"><path
             style="fill:#010000;fill-opacity:1;fill-rule:evenodd;stroke:none;stroke-width:1px;stroke-linecap:butt;stroke-linejoin:miter;stroke-opacity:1"
             d="m 2131.2325,-664.39049 c -16.6551,0.34996 -33.9425,10.77636 -47.9596,36.33466 -38.1458,-62.09056 -77.3693,-33.58949 -83.5483,9.60081 -48.459,16.79402 -58.1338,34.21131 -75.1038,56.50779 -34.7513,17.73038 -71.7928,30.24763 -104.1982,53.30755 -16.59,4.23961 -26.337,32.45145 -9.3847,45.85539 1.5485,53.13274 28.3316,64.57146 54.3583,77.26392 l 87.8314,-17.23578 18.4647,8.8922 5.3715,13.36115 -73.3279,1.80585 -27.1791,4.19467 c 21.4543,39.52793 70.1541,56.71208 130.6808,64.18847 39.1829,-5.17575 63.0653,16.67312 79.7874,51.18159 11.0899,19.27734 23.3641,33.17535 39.428,29.85407 l 13.1456,-12.80111 c 12.737,15.17963 23.1822,36.60599 47.8725,19.20168 24.469,14.25228 3.1466,48.06315 31.9236,68.2345 20.3396,7.16412 19.087,-21.43455 32.8553,-18.12727 14.8301,-3.46698 18.8429,68.3767 30.9747,97.025576 -49.2248,46.568108 -115.9546,49.981078 -124.8567,154.607851 -1.9887,94.499883 43.014,182.066543 135.1817,156.745093 42.1244,-25.17324 -8.6766,-125.77376 109.8394,-174.87242 20.7942,0.998868 43.0093,94.65829 28.1541,121.55352 -9.6646,27.98269 -89.5282,11.40888 -127.6687,116.22725 3.9872,49.06985 260.4329,49.70093 280.6883,-13.86407 13.7513,-109.31161 25.511,-219.239295 12.2053,-336.932286 86.3231,20.330923 169.3154,17.963179 250.6449,4.263258 4.7325,14.039507 7.4329,31.150926 4.6924,56.5078 10.4437,1.2430056 20.9064,2.402457 33.7954,-7.4635058 2.2995,33.8718998 4.6378,67.6501768 9.3847,95.9626138 l 24.4107,2.137371 c 18.6362,35.886439 8.0315,79.929369 -14.0858,102.351769 -33.3365,3.3915 -59.598,16.16172 -77.9158,39.45489 -17.7426,16.81445 -43.2574,27.44737 -37.5475,62.90835 12.1289,15.26363 240.8643,55.91712 261.9101,7.46352 25.1663,-86.01054 47.3478,-172.02345 60.0778,-258.033969 4.2243,-44.5454374 -33.0128,-35.225704 -11.2651,-110.88971 25.3985,82.402757 114.3835,74.934508 81.6765,223.916689 -8.9241,29.89762 -47.6075,17.22186 -70.4114,53.30755 -18.682,25.28723 -29.9168,46.27006 -24.402,85.29887 79.2413,33.93178 147.5933,-6.98487 167.0965,-37.31752 50.494,2.21912 77.4678,-23.2095 75.0952,-82.09863 17.5608,-30.0895 28.3392,-17.78416 41.3084,-19.19027 6.5337,-17.98757 -9.9787,-32.70338 -22.5303,-47.98133 14.0964,-5.5676 31.0053,-5.55098 35.6758,-29.854011 -81.1116,-32.683381 20.8805,-183.629966 -87.3091,-213.252889 -58.2232,-43.98601 -83.2085,-102.80064 -71.343,-178.06132 9.5848,10.38403 19.8395,16.19145 31.915,9.60087 16.3572,-165.12589 -44.8631,-231.39577 -130.4805,-266.5719 l -131.4296,-59.70805 c -156.9851,-64.56362 -217.1942,61.51413 -409.2882,41.5922 -25.8617,-5.71676 -63.2266,-3.70615 -69.4713,-21.32757 17.187,-6.35814 20.8588,-19.29122 20.6499,-34.11728 -65.297,-21.31154 -131.5637,-35.97474 -201.8235,-23.46493 -56.5281,13.22351 -94.2649,62.91485 -144.5664,51.18165 -6.2295,-31.91169 -32.241,-59.30837 -59.9994,-58.72517 z m -148.0835,122.19357 a 11.289439,10.25821 0 0 1 11.3522,10.1723 l 0,0.08 a 11.289439,10.25821 0 0 1 -11.2651,10.26377 11.289439,10.25821 0 0 1 -11.3174,-10.21801 11.289439,10.25821 0 0 1 11.2303,-10.29807 z"
             id="path6180"
             inkscape:connector-curvature="0" /></g></g><g
         inkscape:label="Reflet final"
         id="layer2" /></g></g></svg>